<?xml version="1.0" standalone="no"?>
<!DOCTYPE svg PUBLIC "-//W3C//DTD SVG 20010904//EN"
 "http://www.w3.org/TR/2001/REC-SVG-20010904/DTD/svg10.dtd">
<svg version="1.0" xmlns="http://www.w3.org/2000/svg"
 width="256.000000pt" height="256.000000pt" viewBox="0 0 256.000000 256.000000"
 preserveAspectRatio="xMidYMid meet">
<g transform="translate(0.000000,256.000000) scale(0.100000,-0.100000)"
fill="#000000" stroke="none">
<path d="M1135 2554 c-174 -26 -296 -64 -439 -137 -344 -175 -590 -500 -673
-887 -25 -119 -25 -381 0 -500 157 -735 884 -1183 1599 -984 211 58 407 173
563 329 375 376 480 936 265 1424 -163 370 -507 648 -910 736 -73 15 -342 28
-405 19z m240 -124 c203 -19 380 -80 544 -188 447 -293 631 -862 444 -1367
-115 -309 -371 -566 -678 -678 -215 -79 -466 -94 -680 -41 -552 137 -926 662
-874 1227 26 280 160 556 361 741 182 169 430 281 674 305 49 4 91 9 94 10 3
0 55 -4 115 -9z" style="fill:#363636"/>
<path d="M792 2118 l-142 -83 2 -164 3 -165 143 -83 144 -83 144 82 144 83 0
167 0 166 -141 81 c-78 45 -144 81 -148 81 -3 0 -70 -37 -149 -82z" style="fill:#4e6d8d"/>
<path d="M1475 2116 l-140 -81 0 -170 0 -170 141 -81 140 -81 142 81 141 81 0
170 1 170 -93 52 c-50 29 -114 66 -142 81 l-50 29 -140 -81z" style="fill:#4e6d8d"/>
<path d="M455 1526 l-140 -82 0 -168 0 -168 135 -79 c74 -43 140 -78 147 -78
6 -1 75 36 152 80 l141 82 -2 164 -3 165 -120 70 c-66 38 -131 75 -145 82 -23
12 -36 7 -165 -68z" style="fill:#4e6d8d"/>
<path d="M1133 1527 l-143 -82 0 -166 0 -167 143 -82 142 -83 50 28 c28 15 92
52 143 81 l92 55 0 168 0 169 -137 78 c-75 44 -139 80 -142 81 -3 2 -70 -34
-148 -80z" style="fill:#a4c639"/>
<path d="M1815 1527 l-140 -83 -3 -166 -2 -166 146 -83 c113 -64 150 -80 163
-72 9 5 73 42 144 83 l127 73 -2 166 -3 165 -140 83 c-77 45 -142 82 -145 82
-3 0 -68 -37 -145 -82z" style="fill:#4e6d8d"/>
<path d="M798 946 l-143 -83 -3 -165 -2 -165 141 -82 c77 -44 145 -81 150 -81
6 0 73 37 150 81 l139 81 -2 166 -3 166 -142 82 -142 82 -143 -82z" style="fill:#4e6d8d"/>
<path d="M1472 937 l-142 -81 2 -165 3 -165 143 -84 143 -83 144 83 145 83 0
166 0 166 -141 82 c-78 44 -144 81 -148 81 -3 0 -70 -37 -149 -83z" style="fill:#4e6d8d"/>
</g>
</svg>
