<?xml version="1.0" encoding="utf-8"?>
<svg xmlns="http://www.w3.org/2000/svg" version="1.1" width="256" height="256">
	<title>Exemple simple de figure SVG</title>
	<desc>Cette figure est constituée d'un rectangle, d'un segment de droite et d'un cercle.</desc>

	<path d="M50.5,4.7500001C25.232973,4.75 4.75,25.232973 4.7500001,50.5 4.75,75.767029 25.232973,96.25 50.5,96.25 75.767029,96.25 96.25,75.767029 96.25,50.5 96.25,25.232973 75.767029,4.75 50.5,4.7500001z M50.5,0C78.390381,0 101,22.609621 101,50.5 101,78.390381 78.390381,101 50.5,101 22.609621,101 0,78.390381 0,50.5 0,22.609621 22.609621,0 50.5,0z" style="fill:#59a3fc" />
	<path d="M24.525049,44.043999L35.277451,44.043999 40.655001,53.355549 35.277451,62.667002 24.525049,62.667002 19.149999,53.355549z M5.3750095,33.250998L16.12875,33.250998 21.505,42.562349 16.12875,51.875 5.3750095,51.875 0,42.562349z M43.849176,33.076998L54.601828,33.076998 59.978003,42.388399 54.601828,51.701 43.849176,51.701 38.473001,42.388399z M24.525048,22.108999L35.277451,22.108999 40.654999,31.420399 35.277451,40.731998 24.525048,40.731998 19.149999,31.420399z M43.849176,10.969L54.601828,10.969 59.978003,20.2799 54.601828,29.590999 43.849176,29.590999 38.473001,20.2799z M5.3750095,10.793999L16.12875,10.793999 21.505,20.10555 16.12875,29.417 5.3750095,29.417 0,20.10555z M24.52505,0L35.277451,0 40.655001,9.3126497 35.277451,18.624 24.52505,18.624 19.149999,9.3126497z" width="192" height="192" style="fill:#59a3fc" />
</svg>